<svg width="15" height="15" viewBox="0 0 15 15" fill="none" xmlns="http://www.w3.org/2000/svg">
<path d="M5.40931 2.38128C6.02509 0.24596 9.05071 0.24596 9.66648 2.38128C9.93999 3.32972 10.808 3.98278 11.7951 3.98278H11.9036C14.1208 3.98278 15.1139 6.76375 13.3983 8.1682L12.9618 8.5255C12.214 9.13762 11.9029 10.1364 12.1706 11.0649L12.3847 11.8073C12.9762 13.8584 10.5678 15.4459 8.91606 14.0937C8.11445 13.4375 6.96134 13.4375 6.15973 14.0937C4.50795 15.4459 2.09958 13.8584 2.69106 11.8074L2.90517 11.0649C3.17293 10.1364 2.86176 9.13762 2.114 8.5255L1.67753 8.1682C-0.0381234 6.76374 0.954986 3.98278 3.17219 3.98278H3.28072C4.2678 3.98278 5.13581 3.32972 5.40931 2.38128Z" fill="#E3170A"/>
</svg>