<svg width="47" height="22" viewBox="0 0 47 22" fill="none" xmlns="http://www.w3.org/2000/svg">
<path d="M43.8667 20.8076C43.4281 20.8073 42.9944 20.7352 42.5938 20.596C42.5005 20.5637 42.4117 20.5243 42.3284 20.4783L34.2297 16.031C33.819 15.8054 33.4838 15.5061 33.2524 15.1584C33.021 14.8106 32.9001 14.4245 32.9 14.0326V7.96736C32.9001 7.57551 33.021 7.18943 33.2524 6.84165C33.4838 6.49387 33.819 6.19459 34.2297 5.96903L42.3284 1.52167C42.4117 1.47571 42.5005 1.43631 42.5938 1.40403C43.0708 1.23857 43.5933 1.16872 44.1137 1.20084C44.6342 1.23295 45.1361 1.36601 45.5739 1.58793C46.0117 1.80985 46.3714 2.11359 46.6205 2.47155C46.8695 2.82951 47 3.23034 47 3.63764V18.3624C47 19.0107 46.6699 19.6324 46.0823 20.0908C45.4947 20.5493 44.6977 20.8068 43.8667 20.8068V20.8076ZM24.675 22H6.65833C4.89299 21.9986 3.20047 21.4509 1.95218 20.477C0.703898 19.5032 0.00181446 18.1828 0 16.8056V5.19444C0.00181446 3.81723 0.703898 2.49682 1.95218 1.52298C3.20047 0.549141 4.89299 0.00141554 6.65833 0H24.722C26.4748 0.00161731 28.1552 0.545544 29.3946 1.51246C30.634 2.47938 31.3313 3.79035 31.3333 5.15778V16.8056C31.3315 18.1828 30.6294 19.5032 29.3812 20.477C28.1329 21.4509 26.4403 21.9986 24.675 22Z" fill="black"/>
</svg>
